<?xml version="1.0" standalone="no"?>
<!DOCTYPE svg PUBLIC "-//W3C//DTD SVG 20010904//EN"
 "http://www.w3.org/TR/2001/REC-SVG-20010904/DTD/svg10.dtd">
<svg version="1.0" xmlns="http://www.w3.org/2000/svg"
 width="700.000000pt" height="700.000000pt" viewBox="0 0 700.000000 700.000000"
 preserveAspectRatio="xMidYMid meet">
<metadata>
Created by potrace 1.11, written by Peter Selinger 2001-2013
</metadata>
<g transform="translate(0.000000,700.000000) scale(0.100000,-0.100000)"
fill="#000000" stroke="none">
<path d="M3305 6994 c-267 -20 -437 -47 -655 -101 -986 -244 -1825 -918 -2281
-1833 -369 -742 -464 -1584 -268 -2390 237 -972 893 -1807 1784 -2271 394
-205 795 -326 1265 -380 135 -16 565 -16 700 0 734 85 1368 355 1913 816 625
529 1051 1275 1186 2080 36 213 45 335 45 585 0 249 -9 371 -45 585 -211 1256
-1103 2307 -2314 2725 -227 78 -482 136 -730 165 -126 15 -499 27 -600 19z
m583 -259 c727 -92 1363 -396 1879 -898 1291 -1254 1325 -3300 78 -4596 -421
-438 -963 -752 -1553 -900 -518 -130 -1066 -130 -1584 0 -1155 290 -2065 1193
-2363 2344 -180 696 -123 1435 160 2100 322 755 956 1389 1710 1709 328 139
672 225 1020 255 149 13 502 6 653 -14z"/>
<path d="M3060 3945 l-2095 -2095 2098 0 2097 0 0 2095 c0 1152 -1 2095 -3
2095 -1 0 -945 -943 -2097 -2095z"/>
</g>
</svg>
